<?xml version="1.0" encoding="UTF-8"?>
<svg viewBox="0 0 100 100" xmlns="http://www.w3.org/2000/svg" xmlns:xlink="http://www.w3.org/1999/xlink">
 <defs>
  <linearGradient id="b">
   <stop stop-color="#0d0d0d" offset="0"/>
   <stop stop-color="#353535" offset="1"/>
  </linearGradient>
  <linearGradient id="c">
   <stop stop-color="#8c8c8c" offset="0"/>
   <stop stop-color="#444" offset=".5"/>
   <stop stop-color="#8c8c8c" offset="1"/>
  </linearGradient>
  <linearGradient id="a">
   <stop stop-color="#d3d7cf" offset="0"/>
   <stop stop-color="#9f9f9f" offset="1"/>
  </linearGradient>
  <linearGradient id="e" x1="6.7642" x2="38.928" y1="35.879" y2="38.692" gradientUnits="userSpaceOnUse">
   <stop stop-color="#5b5b5b" offset="0"/>
   <stop stop-color="#1e1e1e" offset="1"/>
  </linearGradient>
  <linearGradient id="d" x1="6.7642" x2="52.271" gradientUnits="userSpaceOnUse">
   <stop stop-color="#898989" offset="0"/>
   <stop stop-color="#4c4c4c" offset="1"/>
  </linearGradient>
  <linearGradient id="s" x1="54.312" x2="32.75" y1="33.426" y2="12.374" gradientUnits="userSpaceOnUse">
   <stop stop-color="#8c8c8c" offset="0"/>
   <stop stop-color="#444" offset=".48546"/>
   <stop stop-color="#8c8c8c" offset="1"/>
  </linearGradient>
  <linearGradient id="am" x1="9.2466" x2="13.792" gradientUnits="userSpaceOnUse" xlink:href="#a"/>
  <linearGradient id="al" x1="13.147" x2="16.348" gradientUnits="userSpaceOnUse" xlink:href="#a"/>
  <linearGradient id="ak" x1="15.615" x2="19.112" gradientUnits="userSpaceOnUse" xlink:href="#a"/>
  <linearGradient id="aj" x1="18.567" x2="22.404" gradientUnits="userSpaceOnUse" xlink:href="#a"/>
  <linearGradient id="ai" x1="22.01" x2="25.87" gradientUnits="userSpaceOnUse" xlink:href="#a"/>
  <linearGradient id="ah" x1="25.829" x2="29.903" gradientUnits="userSpaceOnUse" xlink:href="#a"/>
  <linearGradient id="ag" x1="30.053" x2="34.049" gradientUnits="userSpaceOnUse" xlink:href="#a"/>
  <linearGradient id="af" x1="34.112" x2="37.834" gradientUnits="userSpaceOnUse" xlink:href="#a"/>
  <linearGradient id="ae" x1="38.116" x2="41.697" gradientUnits="userSpaceOnUse" xlink:href="#a"/>
  <linearGradient id="ad" x1="41.956" x2="45.787" gradientUnits="userSpaceOnUse" xlink:href="#a"/>
  <linearGradient id="ac" x1="46.015" x2="49.627" gradientUnits="userSpaceOnUse" xlink:href="#a"/>
  <linearGradient id="ab" x1="45.708" x2="48.279" gradientUnits="userSpaceOnUse" xlink:href="#a"/>
  <linearGradient id="aa" x1="42.917" x2="45.333" gradientUnits="userSpaceOnUse" xlink:href="#a"/>
  <linearGradient id="z" x1="40.386" x2="42.972" gradientUnits="userSpaceOnUse" xlink:href="#a"/>
  <linearGradient id="y" x1="42.614" x2="46.593" gradientUnits="userSpaceOnUse" xlink:href="#a"/>
  <linearGradient id="x" x1="46.879" x2="51.159" gradientUnits="userSpaceOnUse" xlink:href="#a"/>
  <linearGradient id="w" x1="16.508" x2="24.876" y1="26.327" y2="21.984" gradientUnits="userSpaceOnUse" xlink:href="#c"/>
  <linearGradient id="v" x1="12.201" x2="25.119" y1="25.02" y2="22.267" gradientUnits="userSpaceOnUse" xlink:href="#b"/>
  <linearGradient id="u" x1="29.119" x2="37.785" y1="35.542" y2="23.952" gradientUnits="userSpaceOnUse" xlink:href="#c"/>
  <linearGradient id="t" x1="38.691" x2="32.653" y1="33.205" y2="27.042" gradientUnits="userSpaceOnUse" xlink:href="#b"/>
  <linearGradient id="r" x1="52.945" x2="40.339" y1="23.901" y2="24.599" gradientUnits="userSpaceOnUse" xlink:href="#b"/>
  <linearGradient id="q" x1="25.021" x2="37.785" y1="29.825" y2="23.952" gradientUnits="userSpaceOnUse" xlink:href="#c"/>
  <linearGradient id="p" x1="23.511" x2="15.942" y1="17.858" y2="10.244" gradientUnits="userSpaceOnUse" xlink:href="#c"/>
  <linearGradient id="o" x1="17.429" x2="26.528" y1="12.223" y2="17.846" gradientUnits="userSpaceOnUse" xlink:href="#b"/>
  <linearGradient id="n" x1="42.769" x2="26.004" y1="20.482" y2="9.282" gradientUnits="userSpaceOnUse" xlink:href="#c"/>
  <linearGradient id="m" x1="39.755" x2="37.731" y1="8.7094" y2="18.28" gradientUnits="userSpaceOnUse" xlink:href="#b"/>
  <mask id="l" maskUnits="userSpaceOnUse">
   <path transform="translate(.08095,-.87907)" d="m27.307 14.235a5.2364 2.8315 0 1 1 -10.473 0 5.2364 2.8315 0 1 1 10.473 0z" fill="#fff" stroke="#2e3436" stroke-linecap="round" stroke-linejoin="round" stroke-width=".1"/>
  </mask>
  <mask id="k" maskUnits="userSpaceOnUse">
   <path transform="translate(0,-.72567)" d="m25.135 23.622a6.7491 3.1418 0 1 1 -13.498 0 6.7491 3.1418 0 1 1 13.498 0z" fill="#fff" stroke="#2e3436" stroke-linecap="round" stroke-linejoin="round" stroke-width=".1"/>
  </mask>
  <mask id="j" maskUnits="userSpaceOnUse">
   <path transform="translate(-.38286,-.74272)" d="m42.279 30.604a6.6715 3.6848 0 1 1 -13.343 0 6.6715 3.6848 0 1 1 13.343 0z" fill="#fff" stroke="#2e3436" stroke-linecap="round" stroke-linejoin="round" stroke-width=".1"/>
  </mask>
  <mask id="i" maskUnits="userSpaceOnUse">
   <path transform="translate(.09456,-.86907)" d="m44.761 15.321a5.4691 2.8315 0 1 1 -10.938 0 5.4691 2.8315 0 1 1 10.938 0z" fill="#fff" stroke="#2e3436" stroke-linecap="round" stroke-linejoin="round" stroke-width=".1"/>
  </mask>
  <mask id="h" maskUnits="userSpaceOnUse">
   <path transform="translate(.25051,-.85916)" d="m53.217 24.398a5.7406 3.1418 0 1 1 -11.481 0 5.7406 3.1418 0 1 1 11.481 0z" fill="#fff" stroke="#2e3436" stroke-linecap="round" stroke-linejoin="round" stroke-width=".1"/>
  </mask>
  <mask id="g" maskUnits="userSpaceOnUse">
   <path transform="matrix(1.0447 -.04066 .00059508 1.0272 -2.1399 -.37839)" d="m41.038 22.07a7.8352 4.8485 0 1 1 -15.67 0 7.8352 4.8485 0 1 1 15.67 0z" fill="#fff" stroke="#2e3436" stroke-linecap="round" stroke-linejoin="round" stroke-width=".09653"/>
  </mask>
  <radialGradient id="f" cx="33.202" cy="22.07" r="7.9564" gradientTransform="matrix(2.058 -.17303 -.08786 1.2223 -33.189 .83809)" gradientUnits="userSpaceOnUse">
   <stop stop-color="#353535" offset="0"/>
   <stop stop-color="#0d0d0d" offset="1"/>
  </radialGradient>
 </defs>
 <g transform="translate(.14475 -992.9)" stroke="#2e3436">
  <path transform="matrix(.97483 .21459 -.13084 1.1068 5.7428 974.61)" d="m52.208 35.879c0 6.4052-10.159 11.598-22.691 11.598s-22.691-5.1924-22.691-11.598 10.159-11.598 22.691-11.598 22.691 5.1924 22.691 11.598z" fill="url(#e)" stroke-linecap="round" stroke-linejoin="round" stroke-width=".09504"/>
  <path transform="matrix(.96801 .21459 -.12992 1.1068 6.144 973.13)" d="m52.208 35.879c0 6.4052-10.159 11.598-22.691 11.598s-22.691-5.1924-22.691-11.598 10.159-11.598 22.691-11.598 22.691 5.1924 22.691 11.598z" fill="url(#d)" stroke-linecap="round" stroke-linejoin="round" stroke-width=".09538"/>
  <path transform="translate(0 988.36)" d="m8.9212 24.747s-0.54303 3.103 1.4739 6.2836 4.2667 7.2921 13.576 9.9297 11.249 2.2737 13.421 2.1883c2.0514-0.0807 6.8015 0.34661 8.6109 0.83716 1.3629 0.36951 2.4048 0.46545 2.56 1.5515s-2.1721 1.0861-4.0339 2.2497-2.7152 3.103-3.4909 5.3527-1.2412 3.1806-0.46546 4.3442 3.2582 3.6461 5.5854 4.577 4.8873 1.0861 4.8873 1.0861l0.93091-4.1115s-3.0255-0.15515-5.9733-2.0946-2.9479-3.103-2.9479-3.6461 1.3188-1.2412 2.7927-1.8618 2.7152-0.15515 3.1806-2.0946 1.3188-5.0424 1.1636-6.5164-1.0861-2.2497-2.8703-3.0254-3.5685-1.1636-5.5854-1.1636-9.1539 0.54303-14.817-1.3188-13.343-6.9042-14.972-8.7661-2.4533-2.8024-3.0254-3.8012z" fill="#0d0d0d" stroke-width=".1"/>
  <path transform="translate(0 988.36)" d="m9.3091 25.792s0.11284 2.7152 1.2313 4.6085c0.79896 1.3524 2.1594 3.2779 2.1594 3.2779l1.0292-2.9559s-0.74332-0.44383-2.2379-1.7852c-1.3292-1.1928-1.7553-2.5732-2.182-3.1453z" fill="url(#am)" stroke-width=".1"/>
  <path transform="translate(0 988.36)" d="m14.322 31.102-1.1124 3.1329 1.9519 1.7111 1.1246-3.0643-1.9641-1.7798z" fill="url(#al)" stroke-width=".1"/>
  <path transform="translate(0 988.36)" d="m16.799 33.321 2.2506 1.3394-1.2221 3.1085-2.15-1.3836 1.1215-3.0643z" fill="url(#ak)" stroke-width=".1"/>
  <path transform="translate(0 988.36)" d="m19.764 35.067 2.7016 0.92628-1.0957 3.3768-2.7412-1.2616 1.1353-3.0414z" fill="url(#aj)" stroke-width=".1"/>
  <path transform="translate(0 988.36)" d="m23.197 36.154 2.9851 1.1717-1.0409 3.3107-3.0688-0.99123 1.1247-3.4911z" fill="url(#ai)" stroke-width=".1"/>
  <path transform="translate(0 988.36)" d="m26.789 37.528 3.364 0.91127-0.74335 3.2969-3.5187-0.89329 0.89804-3.3149z" fill="url(#ah)" stroke-width=".1"/>
  <path d="m30.741 1027s0.83773 0.2345 1.8099 0.399c0.97696 0.1653 1.5599 0.2114 1.5599 0.2114l-0.54788 3.266s-1.2398-0.1292-1.8178-0.2196c-0.6997-0.1096-1.6303-0.3289-1.6303-0.3289l0.62633-3.3279z" fill="url(#ag)" stroke-width=".1"/>
  <path d="m34.668 1027.6 3.1031 0.04-0.38398 3.2892s-1.0709 0.078-1.6064 0.07-1.6064-0.1174-1.6064-0.1174l0.49369-3.1566v-0.1252z" fill="url(#af)" stroke-width=".1"/>
  <path transform="translate(0 988.36)" d="m38.508 39.309 1.6102-0.0118c0.52633-0.0039 1.5165 0.08195 1.5165 0.08195l-0.33677 3.376s-1.0397-0.06527-1.5595-0.06666-1.5595-0.03541-1.5595-0.03541l0.32913-3.3441z" fill="url(#ae)" stroke-width=".1"/>
  <path transform="translate(0 988.36)" d="m42.387 39.356s1.1647 0.18539 1.7002 0.24685 1.6376 0.46559 1.6376 0.46559l-0.41523 3.3072s-1.0971-0.19326-1.6456-0.27427-1.6456-0.21177-1.6456-0.21177l0.36869-3.5336z" fill="url(#ad)" stroke-width=".1"/>
  <path transform="translate(0 988.36)" d="m46.54009,40.31888c0,0 1.31019.24436 2.15528.87834 .46644.34992.86936.98671.86936.98671l-.72906,3.05588c0,0-.19742-.62169-.84776-.98738-.94715-.53258-1.91025-.64229-1.91025-.64229l.46244-3.29126z" fill="url(#ac)" stroke-width=".1"/>
  <path transform="translate(0 988.36)" d="m48.217 46.94-0.63532 3.3308-1.8109 0.65061 0.29157-2.9864 2.1546-0.99502z" fill="url(#ab)" stroke-width=".1"/>
  <path transform="translate(0 988.36)" d="m45.271 48.257-0.34508 3.001s-0.54854 0.28956-1.0422 0.56383-0.87767 0.65825-0.87767 0.65825-0.21942-2.1393 0.6034-2.9621 1.4422-1.261 1.6616-1.261z" fill="url(#aa)" stroke-width=".1"/>
  <path transform="translate(0 988.36)" d="m41.61882,52.25319c0,0 .18019.83079.45446,1.59875s.83653,1.76905.83653,1.76905-.35655.63082-.64454,1.48107c-.2663.78622-.24685,1.50849-.24685,1.50849l-1.42621-2.07075c-.26224-.38075-.15543-1.02377.23504-2.13899 .43883-1.25334.68186-1.98307.79156-2.14763z" fill="url(#z)" stroke-width=".1"/>
  <path transform="translate(0 988.36)" d="m43.499 56.142s0.67197 0.61711 1.4399 1.1382c0.67019 0.45477 1.5908 0.95995 1.5908 0.95995s-0.23313 0.71311-0.34284 1.6456-4e-6 1.5359-4e-6 1.5359-1.0011-0.39769-2.0159-1.056c-0.98489-0.63884-1.4948-1.1794-1.4948-1.1794s0.05485-0.72682 0.27427-1.5496 0.31043-0.99478 0.54854-1.4948z" fill="url(#y)" stroke-width=".1"/>
  <path transform="translate(0 988.36)" d="m47.284 58.501s0.98738 0.5074 2.0296 0.78167 1.7828 0.37027 1.7828 0.37027l-0.61711 2.8798s-0.8091-0.02742-1.8513-0.3017-1.6731-0.58969-1.6731-0.58969-0.05486-0.71311 0.05485-1.5359 0.21942-1.6045 0.27427-1.6045z" fill="url(#x)" stroke-width=".1"/>
  <path transform="matrix(.99607 .21408 -.23368 .91252 5.355 985.07)" d="m56.242 23.699c0 7.6476-10.697 13.847-23.893 13.847s-23.893-6.1996-23.893-13.847 10.697-13.847 23.893-13.847 23.893 6.1996 23.893 13.847z" fill="url(#e)" stroke-linecap="round" stroke-linejoin="round" stroke-width=".10212"/>
  <path transform="matrix(.99607 .22193 -.23368 .94595 5.355 982.83)" d="m56.242 23.699c0 7.6476-10.697 13.847-23.893 13.847s-23.893-6.1996-23.893-13.847 10.697-13.847 23.893-13.847 23.893 6.1996 23.893 13.847z" fill="url(#d)" stroke-linecap="round" stroke-linejoin="round" stroke-width=".1003"/>
  <path transform="matrix(1.0287 0 0 1.2829 -.56611 982.26)" d="m25.135 23.622c0 1.7352-3.0217 3.1418-6.7491 3.1418s-6.7491-1.4066-6.7491-3.1418 3.0217-3.1418 6.7491-3.1418 6.7491 1.4066 6.7491 3.1418z" fill="url(#w)" stroke-linecap="round" stroke-linejoin="round" stroke-width=".08705"/>
  <path transform="matrix(1.0287 0 0 1.2829 -.56611 983.19)" d="m25.135 23.622c0 1.7352-3.0217 3.1418-6.7491 3.1418s-6.7491-1.4066-6.7491-3.1418 3.0217-3.1418 6.7491-3.1418 6.7491 1.4066 6.7491 3.1418z" fill="url(#v)" mask="url(#k)" stroke-linecap="round" stroke-linejoin="round" stroke-width=".08705"/>
  <path transform="matrix(.96574 .42197 -.39338 1.0359 13.453 973.36)" d="m42.279 30.604c0 2.0351-2.9869 3.6848-6.6715 3.6848s-6.6715-1.6498-6.6715-3.6848 2.9869-3.6848 6.6715-3.6848 6.6715 1.6498 6.6715 3.6848z" fill="url(#u)" stroke-linecap="round" stroke-linejoin="round" stroke-width=".09259"/>
  <path transform="matrix(.96574 .42197 -.39338 1.0359 13.53 974.29)" d="m42.279 30.604c0 2.0351-2.9869 3.6848-6.6715 3.6848s-6.6715-1.6498-6.6715-3.6848 2.9869-3.6848 6.6715-3.6848 6.6715 1.6498 6.6715 3.6848z" fill="url(#t)" mask="url(#j)" stroke-linecap="round" stroke-linejoin="round" stroke-width=".09259"/>
  <path transform="matrix(1.0238 .29254 -.33353 .89797 6.9686 978.17)" d="m53.217 24.398c0 1.7352-2.5702 3.1418-5.7406 3.1418s-5.7406-1.4066-5.7406-3.1418 2.5702-3.1418 5.7406-3.1418 5.7406 1.4066 5.7406 3.1418z" fill="url(#s)" stroke-linecap="round" stroke-linejoin="round" stroke-width=".09916"/>
  <path transform="matrix(1.0238 .29254 -.33353 .89797 6.4256 978.86)" d="m53.217 24.398c0 1.7352-2.5702 3.1418-5.7406 3.1418s-5.7406-1.4066-5.7406-3.1418 2.5702-3.1418 5.7406-3.1418 5.7406 1.4066 5.7406 3.1418z" fill="url(#r)" mask="url(#h)" stroke-linecap="round" stroke-linejoin="round" stroke-width=".09916"/>
  <path transform="matrix(.44315 .11256 -.1318 .37847 21.087 998.3)" d="m41.038 22.07c0 2.6777-3.5079 4.8485-7.8352 4.8485s-7.8352-2.1707-7.8352-4.8485 3.5079-4.8485 7.8352-4.8485 7.8352 2.1707 7.8352 4.8485z" fill="url(#q)" stroke-linecap="round" stroke-linejoin="round" stroke-width=".23405"/>
  <path transform="matrix(.4192 .12208 -.12854 .36836 21.936 998.7)" d="m41.038 22.07c0 2.6777-3.5079 4.8485-7.8352 4.8485s-7.8352-2.1707-7.8352-4.8485 3.5079-4.8485 7.8352-4.8485 7.8352 2.1707 7.8352 4.8485z" fill="url(#f)" mask="url(#g)" stroke-linecap="round" stroke-linejoin="round" stroke-width=".24246"/>
  <path transform="matrix(1.0155 .16626 -.17122 .98608 2.3277 985.2)" d="m27.307 14.235c0 1.5638-2.3444 2.8315-5.2364 2.8315s-5.2364-1.2677-5.2364-2.8315 2.3444-2.8315 5.2364-2.8315 5.2364 1.2677 5.2364 2.8315z" fill="url(#p)" stroke-linecap="round" stroke-linejoin="round" stroke-width=".09854"/>
  <path transform="matrix(1.0155 .16626 -.17122 .98608 2.095 986.05)" d="m27.307 14.235c0 1.5638-2.3444 2.8315-5.2364 2.8315s-5.2364-1.2677-5.2364-2.8315 2.3444-2.8315 5.2364-2.8315 5.2364 1.2677 5.2364 2.8315z" fill="url(#o)" mask="url(#l)" stroke-linecap="round" stroke-linejoin="round" stroke-width=".09854"/>
  <path transform="matrix(1.0138 .24551 -.24675 1.0087 2.6196 979.24)" d="m44.761 15.321c0 1.5638-2.4486 2.8315-5.4691 2.8315s-5.4691-1.2677-5.4691-2.8315 2.4486-2.8315 5.4691-2.8315 5.4691 1.2677 5.4691 2.8315z" fill="url(#n)" stroke-linecap="round" stroke-linejoin="round" stroke-width=".09609"/>
  <path transform="matrix(1.0138 .24551 -.24675 1.0087 2.3093 980.1)" d="m44.761 15.321c0 1.5638-2.4486 2.8315-5.4691 2.8315s-5.4691-1.2677-5.4691-2.8315 2.4486-2.8315 5.4691-2.8315 5.4691 1.2677 5.4691 2.8315z" fill="url(#m)" mask="url(#i)" stroke-linecap="round" stroke-linejoin="round" stroke-width=".09609"/>
 </g>
</svg>
