<svg version="1.1" id="Layer_1" xmlns="http://www.w3.org/2000/svg" xmlns:xlink="http://www.w3.org/1999/xlink" x="0px" y="0px"
	 width="10%" viewBox="0 0 51 51" enable-background="new 0 0 51 51" xml:space="preserve">
<path fill="#000000" opacity="1.000000" stroke="none" 
	d="
M513.000000,179.000000 
	C513.000000,289.139893 512.980774,398.779846 513.085083,508.419617 
	C513.088501,512.017334 512.515686,513.108948 508.582397,513.106018 
	C340.790131,512.982666 172.997742,512.983704 5.205472,513.105896 
	C1.480127,513.108582 0.910772,512.194275 0.912845,508.707397 
	C1.012610,340.915100 1.010899,173.122726 0.922355,5.330405 
	C0.920573,1.952329 1.334516,0.883200 5.167651,0.886209 
	C173.126541,1.018055 341.085571,1.014544 509.044495,0.900134 
	C512.556213,0.897742 513.097595,1.713563 513.090393,5.042788 
	C512.965027,62.861652 513.000000,120.680862 513.000000,179.000000 
z"/>
<path fill="#448FF4" opacity="1.000000" stroke="none" 
	d="
M101.853615,263.661041 
	C105.267326,262.509766 106.153389,260.593781 106.105850,257.254578 
	C105.880562,241.427826 105.883171,225.594894 106.038414,209.766449 
	C106.204094,192.874832 113.082497,178.265991 122.064529,164.453613 
	C131.965973,149.227386 146.867401,140.298050 162.345139,131.827042 
	C178.741028,122.853516 194.681686,113.050568 210.866852,103.688858 
	C224.649216,95.716949 238.521255,87.900154 252.308533,79.936676 
	C268.478455,70.597008 284.583191,61.144520 300.746918,51.794075 
	C314.813263,43.656933 328.901276,35.556713 343.021667,27.513851 
	C349.799042,23.653528 356.477661,19.533739 363.555481,16.309700 
	C371.605499,12.642828 380.194733,11.500011 388.407288,15.946055 
	C397.252747,20.734760 405.733887,26.195528 414.571198,31.000345 
	C426.192810,37.318977 429.949921,47.593086 429.992065,59.953999 
	C430.008392,64.739609 429.994751,69.525322 429.994751,74.736931 
	C438.713074,69.481468 447.081726,64.657166 456.750061,62.622215 
	C479.947174,57.739784 498.765961,68.543839 504.020935,93.902641 
	C508.777802,116.857414 503.038177,138.129974 494.012970,158.937714 
	C486.246063,176.844482 475.375366,192.647812 461.284973,206.097198 
	C451.444489,215.490051 440.587402,223.581512 427.182648,227.318161 
	C422.857361,228.523865 420.464294,231.050156 418.265106,235.002380 
	C410.778656,248.456589 401.073273,260.022888 386.326294,267.474579 
	C395.654144,272.904053 404.335083,277.953430 413.012604,283.008636 
	C429.571655,292.655334 446.199829,302.186340 462.655548,312.006195 
	C470.410065,316.633698 474.262512,323.653351 474.042206,332.909332 
	C473.828125,341.902313 473.638031,350.922241 474.085419,359.898010 
	C474.646729,371.159546 469.184601,378.640991 460.065247,383.932037 
	C429.997864,401.377075 399.823608,418.637817 369.740662,436.056183 
	C341.070587,452.656464 312.455322,469.351501 283.833557,486.035065 
	C274.755432,491.326691 266.074280,497.291229 255.388153,499.300262 
	C239.060623,502.369812 223.749573,500.509766 209.287949,491.869537 
	C195.059189,483.368500 180.562149,475.317322 166.209198,467.023132 
	C148.203217,456.617920 130.240631,446.137634 112.228088,435.743835 
	C97.864822,427.455811 83.430779,419.290405 69.071815,410.994995 
	C52.611858,401.485779 36.146870,391.983032 19.789892,382.298767 
	C11.685561,377.500519 7.650760,370.331879 7.947271,360.677490 
	C8.218252,351.854340 8.249902,343.007935 7.945364,334.187012 
	C7.555978,322.908447 12.844234,315.364441 22.291914,309.923187 
	C48.767353,294.675049 75.158752,279.281006 101.853615,263.661041 
z"/>
<path fill="#FEFFFF" opacity="1.000000" stroke="none" 
	d="
M339.171722,287.179810 
	C285.213287,318.327484 231.572906,349.294586 177.936371,380.268280 
	C173.309906,382.939972 168.617905,385.389648 163.280991,386.411926 
	C153.839142,388.220490 145.972244,384.084045 142.384064,375.154694 
	C140.756058,371.103394 140.053177,366.850464 140.044724,362.461914 
	C139.959457,318.136993 139.330872,273.805328 139.921661,229.489777 
	C140.312027,200.207443 153.769821,176.844284 178.892426,162.073715 
	C248.215912,121.315765 318.062256,81.447014 387.725403,41.267460 
	C390.308075,39.777843 393.053833,38.477806 395.865082,37.493423 
	C409.666412,32.660702 420.767761,39.302967 422.902191,53.732731 
	C424.125671,62.004005 423.522888,70.368874 423.693909,78.693855 
	C423.738678,80.871902 422.322815,81.932182 420.980835,83.172783 
	C396.062592,106.208115 380.220367,134.275070 374.526581,167.815292 
	C372.586456,179.243790 372.800659,190.727631 376.103943,201.973709 
	C380.965668,218.525543 391.823822,227.743073 408.997406,229.492462 
	C412.968292,229.896973 413.439178,230.702576 411.331940,234.026428 
	C404.170471,245.322495 395.406372,254.877594 383.623383,261.546173 
	C368.844208,269.910431 354.195709,278.505524 339.171722,287.179810 
z"/>
<path fill="#FEFFFF" opacity="1.000000" stroke="none" 
	d="
M187.694016,381.673950 
	C250.020859,345.681976 312.058960,309.922974 373.997467,273.992249 
	C377.832672,271.767426 380.530792,271.777588 384.334961,274.015015 
	C407.874817,287.859985 431.594055,301.399719 455.231384,315.079346 
	C471.150635,324.292267 471.204803,334.549042 455.319824,343.789917 
	C393.423767,379.796936 331.573059,415.883026 269.544342,451.660339 
	C251.233902,462.221527 232.174072,462.134827 213.856476,451.627808 
	C151.454941,415.834229 89.225212,379.741089 26.933918,343.755371 
	C10.917367,334.502594 10.838061,324.400269 26.736027,315.150879 
	C51.636917,300.663574 76.557144,286.209473 101.479568,271.759216 
	C106.108620,269.075226 106.173256,269.113983 106.197380,274.433502 
	C106.299408,296.932831 106.356033,319.432373 106.472359,341.931610 
	C106.499924,347.261902 106.592537,352.601654 108.049942,357.797028 
	C110.068710,364.993500 113.991020,370.726257 120.605431,374.503693 
	C128.558670,379.045715 136.609085,383.446075 144.328659,388.361298 
	C153.171799,393.991913 162.129623,394.000488 171.526367,390.310089 
	C177.145248,388.103424 182.114822,384.713806 187.694016,381.673950 
z"/>
<path fill="#FEFFFF" opacity="1.000000" stroke="none" 
	d="
M383.511688,154.602859 
	C392.509674,124.651901 408.377350,99.822182 433.214294,81.102760 
	C439.637909,76.261292 446.678711,72.485847 454.391571,70.111549 
	C476.724274,63.236748 494.086273,73.958611 497.976562,97.057312 
	C501.183258,116.097389 497.196228,134.163300 490.019501,151.668549 
	C480.352509,175.248093 466.003723,195.386032 445.312775,210.612885 
	C436.502472,217.096573 426.905426,221.919144 415.838593,223.330017 
	C401.511505,225.156525 389.778961,218.756424 383.972961,205.475418 
	C377.973541,191.752045 378.877991,177.523621 381.460419,163.251480 
	C381.963226,160.472626 382.728912,157.741318 383.511688,154.602859 
z"/>
<path fill="#FDFEFF" opacity="1.000000" stroke="none" 
	d="
M381.634949,421.647400 
	C344.318970,443.329773 307.361633,464.899902 270.291473,486.274536 
	C251.234329,497.262909 231.930679,497.171753 212.872269,486.196136 
	C151.406967,450.798767 89.989120,415.318970 28.567802,379.845276 
	C25.834709,378.266754 23.094336,376.629700 20.626675,374.679138 
	C16.781939,371.640198 14.697293,367.698914 14.881928,362.553162 
	C15.102533,356.404938 14.933960,350.242737 14.933960,343.518158 
	C19.999252,346.573059 24.577814,349.436615 29.250608,352.137115 
	C89.509483,386.961884 149.720001,421.871063 210.084274,456.512299 
	C231.136169,468.593323 252.587952,468.568573 273.701233,456.324707 
	C334.771851,420.908966 395.798370,385.417175 456.828888,349.932373 
	C460.088562,348.037140 463.226074,345.931763 466.876648,343.637482 
	C466.876648,351.491577 467.452148,358.970459 466.699158,366.313110 
	C466.068329,372.464203 460.757721,375.638336 455.795898,378.531708 
	C439.686096,387.925873 423.557220,397.287323 407.433563,406.657776 
	C398.940247,411.593781 390.442566,416.522278 381.634949,421.647400 
z"/>
<path fill="#B6D9FF" opacity="1.000000" stroke="none" 
	d="
M135.073822,375.307251 
	C130.372620,372.841736 125.883926,370.603912 121.728180,367.861542 
	C116.004456,364.084412 113.946609,358.081573 113.076271,351.628265 
	C112.743729,349.162598 112.767593,346.639221 112.754692,344.141479 
	C112.533333,301.311157 111.853271,258.475891 112.285851,215.651901 
	C112.599152,184.635483 126.607033,160.467422 153.501282,144.807297 
	C221.462479,105.234459 289.667175,66.079735 357.788361,26.781839 
	C360.669037,25.120014 363.603455,23.494707 366.663361,22.211222 
	C374.341736,18.990477 381.837341,18.905773 389.019531,23.844416 
	C391.983887,25.882753 395.218262,27.528418 397.601654,28.925774 
	C328.269287,67.981644 259.723267,108.363373 190.719772,147.942307 
	C186.962128,150.097626 183.185669,152.221924 179.464539,154.438843 
	C149.372833,172.366531 133.700592,198.639374 133.725327,233.879868 
	C133.754333,275.213104 133.908676,316.546234 133.941971,357.879486 
	C133.946289,363.233582 134.195404,368.531769 135.404465,374.176971 
	C135.443451,374.828796 135.439102,375.069397 135.073822,375.307251 
z"/>
<path fill="#B6D9FF" opacity="1.000000" stroke="none" 
	d="
M135.262360,374.765503 
	C135.693039,375.088837 136.063599,375.644440 134.863434,375.440857 
	C134.834198,375.183929 134.955536,375.063354 135.262360,374.765503 
z"/>
<path fill="#448FF4" opacity="1.000000" stroke="none" 
	d="
M250.255646,159.334747 
	C255.469086,152.386642 261.555145,149.473236 270.334381,150.822021 
	C293.354736,154.358673 316.496185,157.102310 339.575623,160.262192 
	C346.421722,161.199509 349.074890,164.478943 349.154510,171.352356 
	C349.222961,177.262787 347.239471,182.551559 343.720612,187.117569 
	C318.414398,219.954422 293.019379,252.722870 267.624115,285.490997 
	C265.353394,288.420990 262.547943,290.757812 259.027740,292.123474 
	C252.415588,294.688660 246.926712,291.809845 245.458984,284.869263 
	C245.084869,283.100006 245.076843,281.231995 245.072708,279.408966 
	C244.995499,245.269394 245.004303,211.129471 244.834290,176.990417 
	C244.802322,170.570389 246.422821,164.850143 250.255646,159.334747 
z"/>
<path fill="#B7DAFF" opacity="1.000000" stroke="none" 
	d="
M251.024811,230.000000 
	C251.006744,211.672318 251.045151,193.844315 250.935898,176.017197 
	C250.905869,171.120667 252.453308,166.880096 255.213333,162.972931 
	C258.424805,158.426682 262.391296,156.018524 268.364746,156.859787 
	C291.606110,160.132996 314.882050,163.162994 338.155334,166.205399 
	C342.222870,166.737122 343.417755,169.004730 343.061920,172.762527 
	C342.514252,178.545975 339.320007,182.983994 335.934479,187.355942 
	C316.147125,212.908875 296.361969,238.463486 276.578369,264.019348 
	C272.703278,269.025085 268.844971,274.043823 264.963654,279.044739 
	C264.045166,280.228119 263.161285,281.462585 262.093811,282.501221 
	C259.730316,284.800873 257.310211,287.964294 253.639053,286.490967 
	C250.242371,285.127777 251.161636,281.384979 251.145432,278.484650 
	C251.056107,262.490051 251.056183,246.494934 251.024811,230.000000 
z"/>
</svg>